<?xml version="1.0" encoding="utf-8" standalone="no"?>
<!DOCTYPE svg PUBLIC "-//W3C//DTD SVG 1.1//EN"
  "http://www.w3.org/Graphics/SVG/1.1/DTD/svg11.dtd">
<svg xmlns:xlink="http://www.w3.org/1999/xlink" width="580.782656pt" height="372.598594pt" viewBox="0 0 580.782656 372.598594" xmlns="http://www.w3.org/2000/svg" version="1.1">
 <metadata>
  <rdf:RDF xmlns:dc="http://purl.org/dc/elements/1.1/" xmlns:cc="http://creativecommons.org/ns#" xmlns:rdf="http://www.w3.org/1999/02/22-rdf-syntax-ns#">
   <cc:Work>
    <dc:type rdf:resource="http://purl.org/dc/dcmitype/StillImage"/>
    <dc:date>2026-09-16T19:43:37.644078</dc:date>
    <dc:format>image/svg+xml</dc:format>
    <dc:creator>
     <cc:Agent>
      <dc:title>Matplotlib v3.11.0, https://matplotlib.org/</dc:title>
     </cc:Agent>
    </dc:creator>
   </cc:Work>
  </rdf:RDF>
 </metadata>
 <defs>
  <style type="text/css">*{stroke-linejoin: round; stroke-linecap: butt}</style>
 </defs>
 <g id="figure_1">
  <g id="patch_1">
   <path d="M 0 372.598594 
L 580.782656 372.598594 
L 580.782656 0 
L 0 0 
z
" style="fill: #f4f3ed"/>
  </g>
  <g id="axes_1">
   <g id="patch_2">
    <path d="M 49.624766 330.637891 
L 567.822656 330.637891 
L 567.822656 12.96 
L 49.624766 12.96 
z
" style="fill: #f4f3ed"/>
   </g>
   <g id="patch_3">
    <path d="M 59.37909 330.637891 
L 108.150711 330.637891 
L 108.150711 12.96 
L 59.37909 12.96 
z
" clip-path="url(#pbc64ddfeff)" style="fill: #e1ecd5; stroke: #e1ecd5; stroke-linejoin: miter"/>
   </g>
   <g id="matplotlib.axis_1">
    <g id="xtick_1">
     <g id="line2d_1">
      <defs>
       <path id="m2e097c81b9" d="M 0 0 
L 0 3.5 
" style="stroke: #60736c; stroke-width: 0.8"/>
      </defs>
      <g>
       <use xlink:href="#m2e097c81b9" x="59.37909" y="330.637891" style="fill: #60736c; stroke: #60736c; stroke-width: 0.8"/>
      </g>
     </g>
     <g id="text_1">
      <!-- 0 -->
      <g style="fill: #60736c" transform="translate(56.515965 344.475781) scale(0.09 -0.09)">
       <defs>
        <path id="DejaVuSans-13" d="M 2034 4250 
Q 1547 4250 1301 3770 
Q 1056 3291 1056 2328 
Q 1056 1369 1301 889 
Q 1547 409 2034 409 
Q 2525 409 2770 889 
Q 3016 1369 3016 2328 
Q 3016 3291 2770 3770 
Q 2525 4250 2034 4250 
z
M 2034 4750 
Q 2819 4750 3233 4129 
Q 3647 3509 3647 2328 
Q 3647 1150 3233 529 
Q 2819 -91 2034 -91 
Q 1250 -91 836 529 
Q 422 1150 422 2328 
Q 422 3509 836 4129 
Q 1250 4750 2034 4750 
z
" transform="scale(0.015625)"/>
       </defs>
       <use xlink:href="#DejaVuSans-13"/>
      </g>
     </g>
    </g>
    <g id="xtick_2">
     <g id="line2d_2">
      <g>
       <use xlink:href="#m2e097c81b9" x="156.922332" y="330.637891" style="fill: #60736c; stroke: #60736c; stroke-width: 0.8"/>
      </g>
     </g>
     <g id="text_2">
      <!-- 2 -->
      <g style="fill: #60736c" transform="translate(154.059207 344.475781) scale(0.09 -0.09)">
       <defs>
        <path id="DejaVuSans-15" d="M 1228 531 
L 3431 531 
L 3431 0 
L 469 0 
L 469 531 
Q 828 903 1448 1529 
Q 2069 2156 2228 2338 
Q 2531 2678 2651 2914 
Q 2772 3150 2772 3378 
Q 2772 3750 2511 3984 
Q 2250 4219 1831 4219 
Q 1534 4219 1204 4116 
Q 875 4013 500 3803 
L 500 4441 
Q 881 4594 1212 4672 
Q 1544 4750 1819 4750 
Q 2544 4750 2975 4387 
Q 3406 4025 3406 3419 
Q 3406 3131 3298 2873 
Q 3191 2616 2906 2266 
Q 2828 2175 2409 1742 
Q 1991 1309 1228 531 
z
" transform="scale(0.015625)"/>
       </defs>
       <use xlink:href="#DejaVuSans-15"/>
      </g>
     </g>
    </g>
    <g id="xtick_3">
     <g id="line2d_3">
      <g>
       <use xlink:href="#m2e097c81b9" x="254.465575" y="330.637891" style="fill: #60736c; stroke: #60736c; stroke-width: 0.8"/>
      </g>
     </g>
     <g id="text_3">
      <!-- 4 -->
      <g style="fill: #60736c" transform="translate(251.60245 344.475781) scale(0.09 -0.09)">
       <defs>
        <path id="DejaVuSans-17" d="M 2419 4116 
L 825 1625 
L 2419 1625 
L 2419 4116 
z
M 2253 4666 
L 3047 4666 
L 3047 1625 
L 3713 1625 
L 3713 1100 
L 3047 1100 
L 3047 0 
L 2419 0 
L 2419 1100 
L 313 1100 
L 313 1709 
L 2253 4666 
z
" transform="scale(0.015625)"/>
       </defs>
       <use xlink:href="#DejaVuSans-17"/>
      </g>
     </g>
    </g>
    <g id="xtick_4">
     <g id="line2d_4">
      <g>
       <use xlink:href="#m2e097c81b9" x="352.008817" y="330.637891" style="fill: #60736c; stroke: #60736c; stroke-width: 0.8"/>
      </g>
     </g>
     <g id="text_4">
      <!-- 6 -->
      <g style="fill: #60736c" transform="translate(349.145692 344.475781) scale(0.09 -0.09)">
       <defs>
        <path id="DejaVuSans-19" d="M 2113 2584 
Q 1688 2584 1439 2293 
Q 1191 2003 1191 1497 
Q 1191 994 1439 701 
Q 1688 409 2113 409 
Q 2538 409 2786 701 
Q 3034 994 3034 1497 
Q 3034 2003 2786 2293 
Q 2538 2584 2113 2584 
z
M 3366 4563 
L 3366 3988 
Q 3128 4100 2886 4159 
Q 2644 4219 2406 4219 
Q 1781 4219 1451 3797 
Q 1122 3375 1075 2522 
Q 1259 2794 1537 2939 
Q 1816 3084 2150 3084 
Q 2853 3084 3261 2657 
Q 3669 2231 3669 1497 
Q 3669 778 3244 343 
Q 2819 -91 2113 -91 
Q 1303 -91 875 529 
Q 447 1150 447 2328 
Q 447 3434 972 4092 
Q 1497 4750 2381 4750 
Q 2619 4750 2861 4703 
Q 3103 4656 3366 4563 
z
" transform="scale(0.015625)"/>
       </defs>
       <use xlink:href="#DejaVuSans-19"/>
      </g>
     </g>
    </g>
    <g id="xtick_5">
     <g id="line2d_5">
      <g>
       <use xlink:href="#m2e097c81b9" x="449.55206" y="330.637891" style="fill: #60736c; stroke: #60736c; stroke-width: 0.8"/>
      </g>
     </g>
     <g id="text_5">
      <!-- 8 -->
      <g style="fill: #60736c" transform="translate(446.688935 344.475781) scale(0.09 -0.09)">
       <defs>
        <path id="DejaVuSans-1b" d="M 2034 2216 
Q 1584 2216 1326 1975 
Q 1069 1734 1069 1313 
Q 1069 891 1326 650 
Q 1584 409 2034 409 
Q 2484 409 2743 651 
Q 3003 894 3003 1313 
Q 3003 1734 2745 1975 
Q 2488 2216 2034 2216 
z
M 1403 2484 
Q 997 2584 770 2862 
Q 544 3141 544 3541 
Q 544 4100 942 4425 
Q 1341 4750 2034 4750 
Q 2731 4750 3128 4425 
Q 3525 4100 3525 3541 
Q 3525 3141 3298 2862 
Q 3072 2584 2669 2484 
Q 3125 2378 3379 2068 
Q 3634 1759 3634 1313 
Q 3634 634 3220 271 
Q 2806 -91 2034 -91 
Q 1263 -91 848 271 
Q 434 634 434 1313 
Q 434 1759 690 2068 
Q 947 2378 1403 2484 
z
M 1172 3481 
Q 1172 3119 1398 2916 
Q 1625 2713 2034 2713 
Q 2441 2713 2670 2916 
Q 2900 3119 2900 3481 
Q 2900 3844 2670 4047 
Q 2441 4250 2034 4250 
Q 1625 4250 1398 4047 
Q 1172 3844 1172 3481 
z
" transform="scale(0.015625)"/>
       </defs>
       <use xlink:href="#DejaVuSans-1b"/>
      </g>
     </g>
    </g>
    <g id="xtick_6">
     <g id="line2d_6">
      <g>
       <use xlink:href="#m2e097c81b9" x="547.095302" y="330.637891" style="fill: #60736c; stroke: #60736c; stroke-width: 0.8"/>
      </g>
     </g>
     <g id="text_6">
      <!-- 10 -->
      <g style="fill: #60736c" transform="translate(541.369052 344.475781) scale(0.09 -0.09)">
       <defs>
        <path id="DejaVuSans-14" d="M 794 531 
L 1825 531 
L 1825 4091 
L 703 3866 
L 703 4441 
L 1819 4666 
L 2450 4666 
L 2450 531 
L 3481 531 
L 3481 0 
L 794 0 
L 794 531 
z
" transform="scale(0.015625)"/>
       </defs>
       <use xlink:href="#DejaVuSans-14"/>
       <use xlink:href="#DejaVuSans-13" transform="translate(63.625 0)"/>
      </g>
     </g>
    </g>
    <g id="text_7">
     <!-- Straight-line distance to nearest mapped rail station (km) -->
     <g style="fill: #60736c" transform="translate(178.850195 357.476484) scale(0.09 -0.09)">
      <defs>
       <path id="DejaVuSans-36" d="M 3425 4513 
L 3425 3897 
Q 3066 4069 2747 4153 
Q 2428 4238 2131 4238 
Q 1616 4238 1336 4038 
Q 1056 3838 1056 3469 
Q 1056 3159 1242 3001 
Q 1428 2844 1947 2747 
L 2328 2669 
Q 3034 2534 3370 2195 
Q 3706 1856 3706 1288 
Q 3706 609 3251 259 
Q 2797 -91 1919 -91 
Q 1588 -91 1214 -16 
Q 841 59 441 206 
L 441 856 
Q 825 641 1194 531 
Q 1563 422 1919 422 
Q 2459 422 2753 634 
Q 3047 847 3047 1241 
Q 3047 1584 2836 1778 
Q 2625 1972 2144 2069 
L 1759 2144 
Q 1053 2284 737 2584 
Q 422 2884 422 3419 
Q 422 4038 858 4394 
Q 1294 4750 2059 4750 
Q 2388 4750 2728 4690 
Q 3069 4631 3425 4513 
z
" transform="scale(0.015625)"/>
       <path id="DejaVuSans-57" d="M 1172 4494 
L 1172 3500 
L 2356 3500 
L 2356 3053 
L 1172 3053 
L 1172 1153 
Q 1172 725 1289 603 
Q 1406 481 1766 481 
L 2356 481 
L 2356 0 
L 1766 0 
Q 1100 0 847 248 
Q 594 497 594 1153 
L 594 3053 
L 172 3053 
L 172 3500 
L 594 3500 
L 594 4494 
L 1172 4494 
z
" transform="scale(0.015625)"/>
       <path id="DejaVuSans-55" d="M 2631 2963 
Q 2534 3019 2420 3045 
Q 2306 3072 2169 3072 
Q 1681 3072 1420 2755 
Q 1159 2438 1159 1844 
L 1159 0 
L 581 0 
L 581 3500 
L 1159 3500 
L 1159 2956 
Q 1341 3275 1631 3429 
Q 1922 3584 2338 3584 
Q 2397 3584 2469 3576 
Q 2541 3569 2628 3553 
L 2631 2963 
z
" transform="scale(0.015625)"/>
       <path id="DejaVuSans-44" d="M 2194 1759 
Q 1497 1759 1228 1600 
Q 959 1441 959 1056 
Q 959 750 1161 570 
Q 1363 391 1709 391 
Q 2188 391 2477 730 
Q 2766 1069 2766 1631 
L 2766 1759 
L 2194 1759 
z
M 3341 1997 
L 3341 0 
L 2766 0 
L 2766 531 
Q 2569 213 2275 61 
Q 1981 -91 1556 -91 
Q 1019 -91 701 211 
Q 384 513 384 1019 
Q 384 1609 779 1909 
Q 1175 2209 1959 2209 
L 2766 2209 
L 2766 2266 
Q 2766 2663 2505 2880 
Q 2244 3097 1772 3097 
Q 1472 3097 1187 3025 
Q 903 2953 641 2809 
L 641 3341 
Q 956 3463 1253 3523 
Q 1550 3584 1831 3584 
Q 2591 3584 2966 3190 
Q 3341 2797 3341 1997 
z
" transform="scale(0.015625)"/>
       <path id="DejaVuSans-4c" d="M 603 3500 
L 1178 3500 
L 1178 0 
L 603 0 
L 603 3500 
z
M 603 4863 
L 1178 4863 
L 1178 4134 
L 603 4134 
L 603 4863 
z
" transform="scale(0.015625)"/>
       <path id="DejaVuSans-4a" d="M 2906 1791 
Q 2906 2416 2648 2759 
Q 2391 3103 1925 3103 
Q 1463 3103 1205 2759 
Q 947 2416 947 1791 
Q 947 1169 1205 825 
Q 1463 481 1925 481 
Q 2391 481 2648 825 
Q 2906 1169 2906 1791 
z
M 3481 434 
Q 3481 -459 3084 -895 
Q 2688 -1331 1869 -1331 
Q 1566 -1331 1297 -1286 
Q 1028 -1241 775 -1147 
L 775 -588 
Q 1028 -725 1275 -790 
Q 1522 -856 1778 -856 
Q 2344 -856 2625 -561 
Q 2906 -266 2906 331 
L 2906 616 
Q 2728 306 2450 153 
Q 2172 0 1784 0 
Q 1141 0 747 490 
Q 353 981 353 1791 
Q 353 2603 747 3093 
Q 1141 3584 1784 3584 
Q 2172 3584 2450 3431 
Q 2728 3278 2906 2969 
L 2906 3500 
L 3481 3500 
L 3481 434 
z
" transform="scale(0.015625)"/>
       <path id="DejaVuSans-4b" d="M 3513 2113 
L 3513 0 
L 2938 0 
L 2938 2094 
Q 2938 2591 2744 2837 
Q 2550 3084 2163 3084 
Q 1697 3084 1428 2787 
Q 1159 2491 1159 1978 
L 1159 0 
L 581 0 
L 581 4863 
L 1159 4863 
L 1159 2956 
Q 1366 3272 1645 3428 
Q 1925 3584 2291 3584 
Q 2894 3584 3203 3211 
Q 3513 2838 3513 2113 
z
" transform="scale(0.015625)"/>
       <path id="DejaVuSans-10" d="M 313 2009 
L 1997 2009 
L 1997 1497 
L 313 1497 
L 313 2009 
z
" transform="scale(0.015625)"/>
       <path id="DejaVuSans-4f" d="M 603 4863 
L 1178 4863 
L 1178 0 
L 603 0 
L 603 4863 
z
" transform="scale(0.015625)"/>
       <path id="DejaVuSans-51" d="M 3513 2113 
L 3513 0 
L 2938 0 
L 2938 2094 
Q 2938 2591 2744 2837 
Q 2550 3084 2163 3084 
Q 1697 3084 1428 2787 
Q 1159 2491 1159 1978 
L 1159 0 
L 581 0 
L 581 3500 
L 1159 3500 
L 1159 2956 
Q 1366 3272 1645 3428 
Q 1925 3584 2291 3584 
Q 2894 3584 3203 3211 
Q 3513 2838 3513 2113 
z
" transform="scale(0.015625)"/>
       <path id="DejaVuSans-48" d="M 3597 1894 
L 3597 1613 
L 953 1613 
Q 991 1019 1311 708 
Q 1631 397 2203 397 
Q 2534 397 2845 478 
Q 3156 559 3463 722 
L 3463 178 
Q 3153 47 2828 -22 
Q 2503 -91 2169 -91 
Q 1331 -91 842 396 
Q 353 884 353 1716 
Q 353 2575 817 3079 
Q 1281 3584 2069 3584 
Q 2775 3584 3186 3129 
Q 3597 2675 3597 1894 
z
M 3022 2063 
Q 3016 2534 2758 2815 
Q 2500 3097 2075 3097 
Q 1594 3097 1305 2825 
Q 1016 2553 972 2059 
L 3022 2063 
z
" transform="scale(0.015625)"/>
       <path id="DejaVuSans-3" transform="scale(0.015625)"/>
       <path id="DejaVuSans-47" d="M 2906 2969 
L 2906 4863 
L 3481 4863 
L 3481 0 
L 2906 0 
L 2906 525 
Q 2725 213 2448 61 
Q 2172 -91 1784 -91 
Q 1150 -91 751 415 
Q 353 922 353 1747 
Q 353 2572 751 3078 
Q 1150 3584 1784 3584 
Q 2172 3584 2448 3432 
Q 2725 3281 2906 2969 
z
M 947 1747 
Q 947 1113 1208 752 
Q 1469 391 1925 391 
Q 2381 391 2643 752 
Q 2906 1113 2906 1747 
Q 2906 2381 2643 2742 
Q 2381 3103 1925 3103 
Q 1469 3103 1208 2742 
Q 947 2381 947 1747 
z
" transform="scale(0.015625)"/>
       <path id="DejaVuSans-56" d="M 2834 3397 
L 2834 2853 
Q 2591 2978 2328 3040 
Q 2066 3103 1784 3103 
Q 1356 3103 1142 2972 
Q 928 2841 928 2578 
Q 928 2378 1081 2264 
Q 1234 2150 1697 2047 
L 1894 2003 
Q 2506 1872 2764 1633 
Q 3022 1394 3022 966 
Q 3022 478 2636 193 
Q 2250 -91 1575 -91 
Q 1294 -91 989 -36 
Q 684 19 347 128 
L 347 722 
Q 666 556 975 473 
Q 1284 391 1588 391 
Q 1994 391 2212 530 
Q 2431 669 2431 922 
Q 2431 1156 2273 1281 
Q 2116 1406 1581 1522 
L 1381 1569 
Q 847 1681 609 1914 
Q 372 2147 372 2553 
Q 372 3047 722 3315 
Q 1072 3584 1716 3584 
Q 2034 3584 2315 3537 
Q 2597 3491 2834 3397 
z
" transform="scale(0.015625)"/>
       <path id="DejaVuSans-46" d="M 3122 3366 
L 3122 2828 
Q 2878 2963 2633 3030 
Q 2388 3097 2138 3097 
Q 1578 3097 1268 2742 
Q 959 2388 959 1747 
Q 959 1106 1268 751 
Q 1578 397 2138 397 
Q 2388 397 2633 464 
Q 2878 531 3122 666 
L 3122 134 
Q 2881 22 2623 -34 
Q 2366 -91 2075 -91 
Q 1284 -91 818 406 
Q 353 903 353 1747 
Q 353 2603 823 3093 
Q 1294 3584 2113 3584 
Q 2378 3584 2631 3529 
Q 2884 3475 3122 3366 
z
" transform="scale(0.015625)"/>
       <path id="DejaVuSans-52" d="M 1959 3097 
Q 1497 3097 1228 2736 
Q 959 2375 959 1747 
Q 959 1119 1226 758 
Q 1494 397 1959 397 
Q 2419 397 2687 759 
Q 2956 1122 2956 1747 
Q 2956 2369 2687 2733 
Q 2419 3097 1959 3097 
z
M 1959 3584 
Q 2709 3584 3137 3096 
Q 3566 2609 3566 1747 
Q 3566 888 3137 398 
Q 2709 -91 1959 -91 
Q 1206 -91 779 398 
Q 353 888 353 1747 
Q 353 2609 779 3096 
Q 1206 3584 1959 3584 
z
" transform="scale(0.015625)"/>
       <path id="DejaVuSans-50" d="M 3328 2828 
Q 3544 3216 3844 3400 
Q 4144 3584 4550 3584 
Q 5097 3584 5394 3201 
Q 5691 2819 5691 2113 
L 5691 0 
L 5113 0 
L 5113 2094 
Q 5113 2597 4934 2840 
Q 4756 3084 4391 3084 
Q 3944 3084 3684 2787 
Q 3425 2491 3425 1978 
L 3425 0 
L 2847 0 
L 2847 2094 
Q 2847 2600 2669 2842 
Q 2491 3084 2119 3084 
Q 1678 3084 1418 2786 
Q 1159 2488 1159 1978 
L 1159 0 
L 581 0 
L 581 3500 
L 1159 3500 
L 1159 2956 
Q 1356 3278 1631 3431 
Q 1906 3584 2284 3584 
Q 2666 3584 2933 3390 
Q 3200 3197 3328 2828 
z
" transform="scale(0.015625)"/>
       <path id="DejaVuSans-53" d="M 1159 525 
L 1159 -1331 
L 581 -1331 
L 581 3500 
L 1159 3500 
L 1159 2969 
Q 1341 3281 1617 3432 
Q 1894 3584 2278 3584 
Q 2916 3584 3314 3078 
Q 3713 2572 3713 1747 
Q 3713 922 3314 415 
Q 2916 -91 2278 -91 
Q 1894 -91 1617 61 
Q 1341 213 1159 525 
z
M 3116 1747 
Q 3116 2381 2855 2742 
Q 2594 3103 2138 3103 
Q 1681 3103 1420 2742 
Q 1159 2381 1159 1747 
Q 1159 1113 1420 752 
Q 1681 391 2138 391 
Q 2594 391 2855 752 
Q 3116 1113 3116 1747 
z
" transform="scale(0.015625)"/>
       <path id="DejaVuSans-b" d="M 1984 4856 
Q 1566 4138 1362 3434 
Q 1159 2731 1159 2009 
Q 1159 1288 1364 580 
Q 1569 -128 1984 -844 
L 1484 -844 
Q 1016 -109 783 600 
Q 550 1309 550 2009 
Q 550 2706 781 3412 
Q 1013 4119 1484 4856 
L 1984 4856 
z
" transform="scale(0.015625)"/>
       <path id="DejaVuSans-4e" d="M 581 4863 
L 1159 4863 
L 1159 1991 
L 2875 3500 
L 3609 3500 
L 1753 1863 
L 3688 0 
L 2938 0 
L 1159 1709 
L 1159 0 
L 581 0 
L 581 4863 
z
" transform="scale(0.015625)"/>
       <path id="DejaVuSans-c" d="M 513 4856 
L 1013 4856 
Q 1481 4119 1714 3412 
Q 1947 2706 1947 2009 
Q 1947 1309 1714 600 
Q 1481 -109 1013 -844 
L 513 -844 
Q 928 -128 1133 580 
Q 1338 1288 1338 2009 
Q 1338 2731 1133 3434 
Q 928 4138 513 4856 
z
" transform="scale(0.015625)"/>
      </defs>
      <use xlink:href="#DejaVuSans-36"/>
      <use xlink:href="#DejaVuSans-57" transform="translate(63.484375 0)"/>
      <use xlink:href="#DejaVuSans-55" transform="translate(102.6875 0)"/>
      <use xlink:href="#DejaVuSans-44" transform="translate(143.796875 0)"/>
      <use xlink:href="#DejaVuSans-4c" transform="translate(205.078125 0)"/>
      <use xlink:href="#DejaVuSans-4a" transform="translate(232.859375 0)"/>
      <use xlink:href="#DejaVuSans-4b" transform="translate(296.34375 0)"/>
      <use xlink:href="#DejaVuSans-57" transform="translate(359.71875 0)"/>
      <use xlink:href="#DejaVuSans-10" transform="translate(398.921875 0)"/>
      <use xlink:href="#DejaVuSans-4f" transform="translate(435 0)"/>
      <use xlink:href="#DejaVuSans-4c" transform="translate(462.78125 0)"/>
      <use xlink:href="#DejaVuSans-51" transform="translate(490.5625 0)"/>
      <use xlink:href="#DejaVuSans-48" transform="translate(553.9375 0)"/>
      <use xlink:href="#DejaVuSans-3" transform="translate(615.46875 0)"/>
      <use xlink:href="#DejaVuSans-47" transform="translate(647.25 0)"/>
      <use xlink:href="#DejaVuSans-4c" transform="translate(710.734375 0)"/>
      <use xlink:href="#DejaVuSans-56" transform="translate(738.515625 0)"/>
      <use xlink:href="#DejaVuSans-57" transform="translate(790.609375 0)"/>
      <use xlink:href="#DejaVuSans-44" transform="translate(829.8125 0)"/>
      <use xlink:href="#DejaVuSans-51" transform="translate(891.09375 0)"/>
      <use xlink:href="#DejaVuSans-46" transform="translate(954.46875 0)"/>
      <use xlink:href="#DejaVuSans-48" transform="translate(1009.453125 0)"/>
      <use xlink:href="#DejaVuSans-3" transform="translate(1070.984375 0)"/>
      <use xlink:href="#DejaVuSans-57" transform="translate(1102.765625 0)"/>
      <use xlink:href="#DejaVuSans-52" transform="translate(1141.96875 0)"/>
      <use xlink:href="#DejaVuSans-3" transform="translate(1203.15625 0)"/>
      <use xlink:href="#DejaVuSans-51" transform="translate(1234.9375 0)"/>
      <use xlink:href="#DejaVuSans-48" transform="translate(1298.3125 0)"/>
      <use xlink:href="#DejaVuSans-44" transform="translate(1359.84375 0)"/>
      <use xlink:href="#DejaVuSans-55" transform="translate(1421.125 0)"/>
      <use xlink:href="#DejaVuSans-48" transform="translate(1460.03125 0)"/>
      <use xlink:href="#DejaVuSans-56" transform="translate(1521.5625 0)"/>
      <use xlink:href="#DejaVuSans-57" transform="translate(1573.65625 0)"/>
      <use xlink:href="#DejaVuSans-3" transform="translate(1612.859375 0)"/>
      <use xlink:href="#DejaVuSans-50" transform="translate(1644.640625 0)"/>
      <use xlink:href="#DejaVuSans-44" transform="translate(1742.046875 0)"/>
      <use xlink:href="#DejaVuSans-53" transform="translate(1803.328125 0)"/>
      <use xlink:href="#DejaVuSans-53" transform="translate(1866.8125 0)"/>
      <use xlink:href="#DejaVuSans-48" transform="translate(1930.296875 0)"/>
      <use xlink:href="#DejaVuSans-47" transform="translate(1991.828125 0)"/>
      <use xlink:href="#DejaVuSans-3" transform="translate(2055.3125 0)"/>
      <use xlink:href="#DejaVuSans-55" transform="translate(2087.09375 0)"/>
      <use xlink:href="#DejaVuSans-44" transform="translate(2128.203125 0)"/>
      <use xlink:href="#DejaVuSans-4c" transform="translate(2189.484375 0)"/>
      <use xlink:href="#DejaVuSans-4f" transform="translate(2217.265625 0)"/>
      <use xlink:href="#DejaVuSans-3" transform="translate(2245.046875 0)"/>
      <use xlink:href="#DejaVuSans-56" transform="translate(2276.828125 0)"/>
      <use xlink:href="#DejaVuSans-57" transform="translate(2328.921875 0)"/>
      <use xlink:href="#DejaVuSans-44" transform="translate(2368.125 0)"/>
      <use xlink:href="#DejaVuSans-57" transform="translate(2429.40625 0)"/>
      <use xlink:href="#DejaVuSans-4c" transform="translate(2468.609375 0)"/>
      <use xlink:href="#DejaVuSans-52" transform="translate(2496.390625 0)"/>
      <use xlink:href="#DejaVuSans-51" transform="translate(2557.578125 0)"/>
      <use xlink:href="#DejaVuSans-3" transform="translate(2620.953125 0)"/>
      <use xlink:href="#DejaVuSans-b" transform="translate(2652.734375 0)"/>
      <use xlink:href="#DejaVuSans-4e" transform="translate(2691.75 0)"/>
      <use xlink:href="#DejaVuSans-50" transform="translate(2749.65625 0)"/>
      <use xlink:href="#DejaVuSans-c" transform="translate(2847.0625 0)"/>
     </g>
    </g>
   </g>
   <g id="matplotlib.axis_2">
    <g id="ytick_1">
     <g id="line2d_7">
      <path d="M 49.624766 323.973319 
L 567.822656 323.973319 
" clip-path="url(#pbc64ddfeff)" style="fill: none; stroke: #b0b0b0; stroke-opacity: 0.2; stroke-width: 0.8; stroke-linecap: square"/>
     </g>
     <g id="line2d_8">
      <defs>
       <path id="md115d296c9" d="M 0 0 
L -3.5 0 
" style="stroke: #60736c; stroke-width: 0.8"/>
      </defs>
      <g>
       <use xlink:href="#md115d296c9" x="49.624766" y="323.973319" style="fill: #60736c; stroke: #60736c; stroke-width: 0.8"/>
      </g>
     </g>
     <g id="text_8">
      <!-- 0k -->
      <g style="fill: #60736c" transform="translate(31.686953 327.392616) scale(0.09 -0.09)">
       <use xlink:href="#DejaVuSans-13"/>
       <use xlink:href="#DejaVuSans-4e" transform="translate(63.625 0)"/>
      </g>
     </g>
    </g>
    <g id="ytick_2">
     <g id="line2d_9">
      <path d="M 49.624766 268.435227 
L 567.822656 268.435227 
" clip-path="url(#pbc64ddfeff)" style="fill: none; stroke: #b0b0b0; stroke-opacity: 0.2; stroke-width: 0.8; stroke-linecap: square"/>
     </g>
     <g id="line2d_10">
      <g>
       <use xlink:href="#md115d296c9" x="49.624766" y="268.435227" style="fill: #60736c; stroke: #60736c; stroke-width: 0.8"/>
      </g>
     </g>
     <g id="text_9">
      <!-- 5k -->
      <g style="fill: #60736c" transform="translate(31.686953 271.854524) scale(0.09 -0.09)">
       <defs>
        <path id="DejaVuSans-18" d="M 691 4666 
L 3169 4666 
L 3169 4134 
L 1269 4134 
L 1269 2991 
Q 1406 3038 1543 3061 
Q 1681 3084 1819 3084 
Q 2600 3084 3056 2656 
Q 3513 2228 3513 1497 
Q 3513 744 3044 326 
Q 2575 -91 1722 -91 
Q 1428 -91 1123 -41 
Q 819 9 494 109 
L 494 744 
Q 775 591 1075 516 
Q 1375 441 1709 441 
Q 2250 441 2565 725 
Q 2881 1009 2881 1497 
Q 2881 1984 2565 2268 
Q 2250 2553 1709 2553 
Q 1456 2553 1204 2497 
Q 953 2441 691 2322 
L 691 4666 
z
" transform="scale(0.015625)"/>
       </defs>
       <use xlink:href="#DejaVuSans-18"/>
       <use xlink:href="#DejaVuSans-4e" transform="translate(63.625 0)"/>
      </g>
     </g>
    </g>
    <g id="ytick_3">
     <g id="line2d_11">
      <path d="M 49.624766 212.897134 
L 567.822656 212.897134 
" clip-path="url(#pbc64ddfeff)" style="fill: none; stroke: #b0b0b0; stroke-opacity: 0.2; stroke-width: 0.8; stroke-linecap: square"/>
     </g>
     <g id="line2d_12">
      <g>
       <use xlink:href="#md115d296c9" x="49.624766" y="212.897134" style="fill: #60736c; stroke: #60736c; stroke-width: 0.8"/>
      </g>
     </g>
     <g id="text_10">
      <!-- 10k -->
      <g style="fill: #60736c" transform="translate(25.960703 216.316431) scale(0.09 -0.09)">
       <use xlink:href="#DejaVuSans-14"/>
       <use xlink:href="#DejaVuSans-13" transform="translate(63.625 0)"/>
       <use xlink:href="#DejaVuSans-4e" transform="translate(127.25 0)"/>
      </g>
     </g>
    </g>
    <g id="ytick_4">
     <g id="line2d_13">
      <path d="M 49.624766 157.359041 
L 567.822656 157.359041 
" clip-path="url(#pbc64ddfeff)" style="fill: none; stroke: #b0b0b0; stroke-opacity: 0.2; stroke-width: 0.8; stroke-linecap: square"/>
     </g>
     <g id="line2d_14">
      <g>
       <use xlink:href="#md115d296c9" x="49.624766" y="157.359041" style="fill: #60736c; stroke: #60736c; stroke-width: 0.8"/>
      </g>
     </g>
     <g id="text_11">
      <!-- 15k -->
      <g style="fill: #60736c" transform="translate(25.960703 160.778338) scale(0.09 -0.09)">
       <use xlink:href="#DejaVuSans-14"/>
       <use xlink:href="#DejaVuSans-18" transform="translate(63.625 0)"/>
       <use xlink:href="#DejaVuSans-4e" transform="translate(127.25 0)"/>
      </g>
     </g>
    </g>
    <g id="ytick_5">
     <g id="line2d_15">
      <path d="M 49.624766 101.820948 
L 567.822656 101.820948 
" clip-path="url(#pbc64ddfeff)" style="fill: none; stroke: #b0b0b0; stroke-opacity: 0.2; stroke-width: 0.8; stroke-linecap: square"/>
     </g>
     <g id="line2d_16">
      <g>
       <use xlink:href="#md115d296c9" x="49.624766" y="101.820948" style="fill: #60736c; stroke: #60736c; stroke-width: 0.8"/>
      </g>
     </g>
     <g id="text_12">
      <!-- 20k -->
      <g style="fill: #60736c" transform="translate(25.960703 105.240245) scale(0.09 -0.09)">
       <use xlink:href="#DejaVuSans-15"/>
       <use xlink:href="#DejaVuSans-13" transform="translate(63.625 0)"/>
       <use xlink:href="#DejaVuSans-4e" transform="translate(127.25 0)"/>
      </g>
     </g>
    </g>
    <g id="ytick_6">
     <g id="line2d_17">
      <path d="M 49.624766 46.282856 
L 567.822656 46.282856 
" clip-path="url(#pbc64ddfeff)" style="fill: none; stroke: #b0b0b0; stroke-opacity: 0.2; stroke-width: 0.8; stroke-linecap: square"/>
     </g>
     <g id="line2d_18">
      <g>
       <use xlink:href="#md115d296c9" x="49.624766" y="46.282856" style="fill: #60736c; stroke: #60736c; stroke-width: 0.8"/>
      </g>
     </g>
     <g id="text_13">
      <!-- 25k -->
      <g style="fill: #60736c" transform="translate(25.960703 49.702153) scale(0.09 -0.09)">
       <use xlink:href="#DejaVuSans-15"/>
       <use xlink:href="#DejaVuSans-18" transform="translate(63.625 0)"/>
       <use xlink:href="#DejaVuSans-4e" transform="translate(127.25 0)"/>
      </g>
     </g>
    </g>
    <g id="text_14">
     <!-- Modelled homes -->
     <g style="fill: #60736c" transform="translate(19.798594 208.718633) rotate(-90) scale(0.09 -0.09)">
      <defs>
       <path id="DejaVuSans-30" d="M 628 4666 
L 1569 4666 
L 2759 1491 
L 3956 4666 
L 4897 4666 
L 4897 0 
L 4281 0 
L 4281 4097 
L 3078 897 
L 2444 897 
L 1241 4097 
L 1241 0 
L 628 0 
L 628 4666 
z
" transform="scale(0.015625)"/>
      </defs>
      <use xlink:href="#DejaVuSans-30"/>
      <use xlink:href="#DejaVuSans-52" transform="translate(86.28125 0)"/>
      <use xlink:href="#DejaVuSans-47" transform="translate(147.46875 0)"/>
      <use xlink:href="#DejaVuSans-48" transform="translate(210.953125 0)"/>
      <use xlink:href="#DejaVuSans-4f" transform="translate(272.484375 0)"/>
      <use xlink:href="#DejaVuSans-4f" transform="translate(300.265625 0)"/>
      <use xlink:href="#DejaVuSans-48" transform="translate(328.046875 0)"/>
      <use xlink:href="#DejaVuSans-47" transform="translate(389.578125 0)"/>
      <use xlink:href="#DejaVuSans-3" transform="translate(453.0625 0)"/>
      <use xlink:href="#DejaVuSans-4b" transform="translate(484.84375 0)"/>
      <use xlink:href="#DejaVuSans-52" transform="translate(548.21875 0)"/>
      <use xlink:href="#DejaVuSans-50" transform="translate(609.40625 0)"/>
      <use xlink:href="#DejaVuSans-48" transform="translate(706.8125 0)"/>
      <use xlink:href="#DejaVuSans-56" transform="translate(768.34375 0)"/>
     </g>
    </g>
   </g>
   <g id="PathCollection_1">
    <defs>
     <path id="C0_0_8d1ea0e917" d="M 0 4.031129 
C 1.069068 4.031129 2.094493 3.606384 2.850439 2.850439 
C 3.606384 2.094493 4.031129 1.069068 4.031129 -0 
C 4.031129 -1.069068 3.606384 -2.094493 2.850439 -2.850439 
C 2.094493 -3.606384 1.069068 -4.031129 0 -4.031129 
C -1.069068 -4.031129 -2.094493 -3.606384 -2.850439 -2.850439 
C -3.606384 -2.094493 -4.031129 -1.069068 -4.031129 0 
C -4.031129 1.069068 -3.606384 2.094493 -2.850439 2.850439 
C -2.094493 3.606384 -1.069068 4.031129 0 4.031129 
z
"/>
    </defs>
    <g clip-path="url(#pbc64ddfeff)">
     <use xlink:href="#C0_0_8d1ea0e917" x="76.321961" y="318.108497" style="fill: #176b52; stroke: #f4f3ed"/>
    </g>
    <g clip-path="url(#pbc64ddfeff)">
     <use xlink:href="#C0_0_8d1ea0e917" x="101.800939" y="283.985893" style="fill: #176b52; stroke: #f4f3ed"/>
    </g>
    <g clip-path="url(#pbc64ddfeff)">
     <use xlink:href="#C0_0_8d1ea0e917" x="100.730889" y="263.325722" style="fill: #176b52; stroke: #f4f3ed"/>
    </g>
    <g clip-path="url(#pbc64ddfeff)">
     <use xlink:href="#C0_0_8d1ea0e917" x="88.586561" y="317.131026" style="fill: #176b52; stroke: #f4f3ed"/>
    </g>
    <g clip-path="url(#pbc64ddfeff)">
     <use xlink:href="#C0_0_8d1ea0e917" x="90.334438" y="321.040908" style="fill: #176b52; stroke: #f4f3ed"/>
    </g>
    <g clip-path="url(#pbc64ddfeff)">
     <use xlink:href="#C0_0_8d1ea0e917" x="99.886653" y="318.486156" style="fill: #176b52; stroke: #f4f3ed"/>
    </g>
    <g clip-path="url(#pbc64ddfeff)">
     <use xlink:href="#C0_0_8d1ea0e917" x="119.454217" y="284.874502" style="fill: #176b52; stroke: #f4f3ed"/>
    </g>
    <g clip-path="url(#pbc64ddfeff)">
     <use xlink:href="#C0_0_8d1ea0e917" x="119.598679" y="44.061332" style="fill: #176b52; stroke: #f4f3ed"/>
    </g>
    <g clip-path="url(#pbc64ddfeff)">
     <use xlink:href="#C0_0_8d1ea0e917" x="65.81192" y="283.541588" style="fill: #176b52; stroke: #f4f3ed"/>
    </g>
    <g clip-path="url(#pbc64ddfeff)">
     <use xlink:href="#C0_0_8d1ea0e917" x="69.361178" y="311.532787" style="fill: #176b52; stroke: #f4f3ed"/>
    </g>
    <g clip-path="url(#pbc64ddfeff)">
     <use xlink:href="#C0_0_8d1ea0e917" x="122.812826" y="320.063438" style="fill: #be6b35; stroke: #f4f3ed"/>
    </g>
    <g clip-path="url(#pbc64ddfeff)">
     <use xlink:href="#C0_0_8d1ea0e917" x="112.73222" y="176.241993" style="fill: #be6b35; stroke: #f4f3ed"/>
    </g>
    <g clip-path="url(#pbc64ddfeff)">
     <use xlink:href="#C0_0_8d1ea0e917" x="99.202192" y="277.321322" style="fill: #be6b35; stroke: #f4f3ed"/>
    </g>
    <g clip-path="url(#pbc64ddfeff)">
     <use xlink:href="#C0_0_8d1ea0e917" x="136.75873" y="275.099798" style="fill: #be6b35; stroke: #f4f3ed"/>
    </g>
    <g clip-path="url(#pbc64ddfeff)">
     <use xlink:href="#C0_0_8d1ea0e917" x="148.762548" y="315.020579" style="fill: #be6b35; stroke: #f4f3ed"/>
    </g>
    <g clip-path="url(#pbc64ddfeff)">
     <use xlink:href="#C0_0_8d1ea0e917" x="63.957282" y="267.324465" style="fill: #be6b35; stroke: #f4f3ed"/>
    </g>
    <g clip-path="url(#pbc64ddfeff)">
     <use xlink:href="#C0_0_8d1ea0e917" x="105.790604" y="286.207416" style="fill: #be6b35; stroke: #f4f3ed"/>
    </g>
    <g clip-path="url(#pbc64ddfeff)">
     <use xlink:href="#C0_0_8d1ea0e917" x="114.36007" y="235.334523" style="fill: #be6b35; stroke: #f4f3ed"/>
    </g>
    <g clip-path="url(#pbc64ddfeff)">
     <use xlink:href="#C0_0_8d1ea0e917" x="283.739863" y="258.993751" style="fill: #be6b35; stroke: #f4f3ed"/>
    </g>
    <g clip-path="url(#pbc64ddfeff)">
     <use xlink:href="#C0_0_8d1ea0e917" x="86.93847" y="287.984635" style="fill: #be6b35; stroke: #f4f3ed"/>
    </g>
    <g clip-path="url(#pbc64ddfeff)">
     <use xlink:href="#C0_0_8d1ea0e917" x="110.271691" y="287.318178" style="fill: #567ca2; stroke: #f4f3ed"/>
    </g>
    <g clip-path="url(#pbc64ddfeff)">
     <use xlink:href="#C0_0_8d1ea0e917" x="129.64973" y="248.996894" style="fill: #567ca2; stroke: #f4f3ed"/>
    </g>
    <g clip-path="url(#pbc64ddfeff)">
     <use xlink:href="#C0_0_8d1ea0e917" x="207.972613" y="275.988407" style="fill: #567ca2; stroke: #f4f3ed"/>
    </g>
    <g clip-path="url(#pbc64ddfeff)">
     <use xlink:href="#C0_0_8d1ea0e917" x="281.66385" y="282.097598" style="fill: #567ca2; stroke: #f4f3ed"/>
    </g>
    <g clip-path="url(#pbc64ddfeff)">
     <use xlink:href="#C0_0_8d1ea0e917" x="89.079495" y="277.321322" style="fill: #567ca2; stroke: #f4f3ed"/>
    </g>
    <g clip-path="url(#pbc64ddfeff)">
     <use xlink:href="#C0_0_8d1ea0e917" x="232.674171" y="276.321636" style="fill: #567ca2; stroke: #f4f3ed"/>
    </g>
    <g clip-path="url(#pbc64ddfeff)">
     <use xlink:href="#C0_0_8d1ea0e917" x="107.240584" y="317.308748" style="fill: #567ca2; stroke: #f4f3ed"/>
    </g>
    <g clip-path="url(#pbc64ddfeff)">
     <use xlink:href="#C0_0_8d1ea0e917" x="129.378267" y="283.541588" style="fill: #567ca2; stroke: #f4f3ed"/>
    </g>
    <g clip-path="url(#pbc64ddfeff)">
     <use xlink:href="#C0_0_8d1ea0e917" x="263.570749" y="306.645435" style="fill: #567ca2; stroke: #f4f3ed"/>
    </g>
    <g clip-path="url(#pbc64ddfeff)">
     <use xlink:href="#C0_0_8d1ea0e917" x="533.682521" y="314.198615" style="fill: #567ca2; stroke: #f4f3ed"/>
    </g>
   </g>
   <g id="text_15">
    <!-- Wingfield -->
    <g style="fill: #183d35" transform="translate(128.598679 43.061332) scale(0.08 -0.08)">
     <defs>
      <path id="DejaVuSans-3a" d="M 213 4666 
L 850 4666 
L 1831 722 
L 2809 4666 
L 3519 4666 
L 4500 722 
L 5478 4666 
L 6119 4666 
L 4947 0 
L 4153 0 
L 3169 4050 
L 2175 0 
L 1381 0 
L 213 4666 
z
" transform="scale(0.015625)"/>
      <path id="DejaVuSans-13af" d="M 3431 3500 
L 3431 0 
L 2853 0 
L 2853 3053 
L 1275 3053 
L 1275 0 
L 697 0 
L 697 3053 
L 147 3053 
L 147 3500 
L 697 3500 
L 697 3744 
Q 697 4316 967 4589 
Q 1238 4863 1797 4863 
L 2375 4863 
L 2375 4384 
L 1825 4384 
Q 1516 4384 1395 4259 
Q 1275 4134 1275 3809 
L 1275 3500 
L 3431 3500 
z
M 2853 4856 
L 3431 4856 
L 3431 4128 
L 2853 4128 
L 2853 4856 
z
" transform="scale(0.015625)"/>
     </defs>
     <use xlink:href="#DejaVuSans-3a"/>
     <use xlink:href="#DejaVuSans-4c" transform="translate(96.671875 0)"/>
     <use xlink:href="#DejaVuSans-51" transform="translate(124.453125 0)"/>
     <use xlink:href="#DejaVuSans-4a" transform="translate(187.828125 0)"/>
     <use xlink:href="#DejaVuSans-13af" transform="translate(251.3125 0)"/>
     <use xlink:href="#DejaVuSans-48" transform="translate(314.296875 0)"/>
     <use xlink:href="#DejaVuSans-4f" transform="translate(375.828125 0)"/>
     <use xlink:href="#DejaVuSans-47" transform="translate(403.609375 0)"/>
    </g>
   </g>
   <g id="text_16">
    <!-- Ysterplaat -->
    <g style="fill: #183d35" transform="translate(121.73222 172.241993) scale(0.08 -0.08)">
     <defs>
      <path id="DejaVuSans-3c" d="M -13 4666 
L 666 4666 
L 1959 2747 
L 3244 4666 
L 3922 4666 
L 2272 2222 
L 2272 0 
L 1638 0 
L 1638 2222 
L -13 4666 
z
" transform="scale(0.015625)"/>
     </defs>
     <use xlink:href="#DejaVuSans-3c"/>
     <use xlink:href="#DejaVuSans-56" transform="translate(61.078125 0)"/>
     <use xlink:href="#DejaVuSans-57" transform="translate(113.171875 0)"/>
     <use xlink:href="#DejaVuSans-48" transform="translate(152.375 0)"/>
     <use xlink:href="#DejaVuSans-55" transform="translate(213.90625 0)"/>
     <use xlink:href="#DejaVuSans-53" transform="translate(255.015625 0)"/>
     <use xlink:href="#DejaVuSans-4f" transform="translate(318.5 0)"/>
     <use xlink:href="#DejaVuSans-44" transform="translate(346.28125 0)"/>
     <use xlink:href="#DejaVuSans-44" transform="translate(407.5625 0)"/>
     <use xlink:href="#DejaVuSans-57" transform="translate(468.84375 0)"/>
    </g>
   </g>
   <g id="text_17">
    <!-- Founders Garden -->
    <g style="fill: #183d35" transform="translate(88.321961 306.108497) scale(0.08 -0.08)">
     <defs>
      <path id="DejaVuSans-29" d="M 628 4666 
L 3309 4666 
L 3309 4134 
L 1259 4134 
L 1259 2759 
L 3109 2759 
L 3109 2228 
L 1259 2228 
L 1259 0 
L 628 0 
L 628 4666 
z
" transform="scale(0.015625)"/>
      <path id="DejaVuSans-58" d="M 544 1381 
L 544 3500 
L 1119 3500 
L 1119 1403 
Q 1119 906 1312 657 
Q 1506 409 1894 409 
Q 2359 409 2629 706 
Q 2900 1003 2900 1516 
L 2900 3500 
L 3475 3500 
L 3475 0 
L 2900 0 
L 2900 538 
Q 2691 219 2414 64 
Q 2138 -91 1772 -91 
Q 1169 -91 856 284 
Q 544 659 544 1381 
z
M 1991 3584 
L 1991 3584 
z
" transform="scale(0.015625)"/>
      <path id="DejaVuSans-2a" d="M 3809 666 
L 3809 1919 
L 2778 1919 
L 2778 2438 
L 4434 2438 
L 4434 434 
Q 4069 175 3628 42 
Q 3188 -91 2688 -91 
Q 1594 -91 976 548 
Q 359 1188 359 2328 
Q 359 3472 976 4111 
Q 1594 4750 2688 4750 
Q 3144 4750 3555 4637 
Q 3966 4525 4313 4306 
L 4313 3634 
Q 3963 3931 3569 4081 
Q 3175 4231 2741 4231 
Q 1884 4231 1454 3753 
Q 1025 3275 1025 2328 
Q 1025 1384 1454 906 
Q 1884 428 2741 428 
Q 3075 428 3337 486 
Q 3600 544 3809 666 
z
" transform="scale(0.015625)"/>
     </defs>
     <use xlink:href="#DejaVuSans-29"/>
     <use xlink:href="#DejaVuSans-52" transform="translate(53.953125 0)"/>
     <use xlink:href="#DejaVuSans-58" transform="translate(115.140625 0)"/>
     <use xlink:href="#DejaVuSans-51" transform="translate(178.515625 0)"/>
     <use xlink:href="#DejaVuSans-47" transform="translate(241.890625 0)"/>
     <use xlink:href="#DejaVuSans-48" transform="translate(305.375 0)"/>
     <use xlink:href="#DejaVuSans-55" transform="translate(366.90625 0)"/>
     <use xlink:href="#DejaVuSans-56" transform="translate(408.015625 0)"/>
     <use xlink:href="#DejaVuSans-3" transform="translate(460.109375 0)"/>
     <use xlink:href="#DejaVuSans-2a" transform="translate(491.890625 0)"/>
     <use xlink:href="#DejaVuSans-44" transform="translate(569.375 0)"/>
     <use xlink:href="#DejaVuSans-55" transform="translate(630.65625 0)"/>
     <use xlink:href="#DejaVuSans-47" transform="translate(670.015625 0)"/>
     <use xlink:href="#DejaVuSans-48" transform="translate(733.5 0)"/>
     <use xlink:href="#DejaVuSans-51" transform="translate(795.03125 0)"/>
    </g>
   </g>
   <g id="text_18">
    <!-- Bellville CBD -->
    <g style="fill: #183d35" transform="translate(113.800939 278.985893) scale(0.08 -0.08)">
     <defs>
      <path id="DejaVuSans-25" d="M 1259 2228 
L 1259 519 
L 2272 519 
Q 2781 519 3026 730 
Q 3272 941 3272 1375 
Q 3272 1813 3026 2020 
Q 2781 2228 2272 2228 
L 1259 2228 
z
M 1259 4147 
L 1259 2741 
L 2194 2741 
Q 2656 2741 2882 2914 
Q 3109 3088 3109 3444 
Q 3109 3797 2882 3972 
Q 2656 4147 2194 4147 
L 1259 4147 
z
M 628 4666 
L 2241 4666 
Q 2963 4666 3353 4366 
Q 3744 4066 3744 3513 
Q 3744 3084 3544 2831 
Q 3344 2578 2956 2516 
Q 3422 2416 3680 2098 
Q 3938 1781 3938 1306 
Q 3938 681 3513 340 
Q 3088 0 2303 0 
L 628 0 
L 628 4666 
z
" transform="scale(0.015625)"/>
      <path id="DejaVuSans-59" d="M 191 3500 
L 800 3500 
L 1894 563 
L 2988 3500 
L 3597 3500 
L 2284 0 
L 1503 0 
L 191 3500 
z
" transform="scale(0.015625)"/>
      <path id="DejaVuSans-26" d="M 4122 4306 
L 4122 3641 
Q 3803 3938 3442 4084 
Q 3081 4231 2675 4231 
Q 1875 4231 1450 3742 
Q 1025 3253 1025 2328 
Q 1025 1406 1450 917 
Q 1875 428 2675 428 
Q 3081 428 3442 575 
Q 3803 722 4122 1019 
L 4122 359 
Q 3791 134 3420 21 
Q 3050 -91 2638 -91 
Q 1578 -91 968 557 
Q 359 1206 359 2328 
Q 359 3453 968 4101 
Q 1578 4750 2638 4750 
Q 3056 4750 3426 4639 
Q 3797 4528 4122 4306 
z
" transform="scale(0.015625)"/>
      <path id="DejaVuSans-27" d="M 1259 4147 
L 1259 519 
L 2022 519 
Q 2988 519 3436 956 
Q 3884 1394 3884 2338 
Q 3884 3275 3436 3711 
Q 2988 4147 2022 4147 
L 1259 4147 
z
M 628 4666 
L 1925 4666 
Q 3281 4666 3915 4102 
Q 4550 3538 4550 2338 
Q 4550 1131 3912 565 
Q 3275 0 1925 0 
L 628 0 
L 628 4666 
z
" transform="scale(0.015625)"/>
     </defs>
     <use xlink:href="#DejaVuSans-25"/>
     <use xlink:href="#DejaVuSans-48" transform="translate(68.609375 0)"/>
     <use xlink:href="#DejaVuSans-4f" transform="translate(130.140625 0)"/>
     <use xlink:href="#DejaVuSans-4f" transform="translate(157.921875 0)"/>
     <use xlink:href="#DejaVuSans-59" transform="translate(185.703125 0)"/>
     <use xlink:href="#DejaVuSans-4c" transform="translate(244.890625 0)"/>
     <use xlink:href="#DejaVuSans-4f" transform="translate(272.671875 0)"/>
     <use xlink:href="#DejaVuSans-4f" transform="translate(300.453125 0)"/>
     <use xlink:href="#DejaVuSans-48" transform="translate(328.234375 0)"/>
     <use xlink:href="#DejaVuSans-3" transform="translate(389.765625 0)"/>
     <use xlink:href="#DejaVuSans-26" transform="translate(421.546875 0)"/>
     <use xlink:href="#DejaVuSans-25" transform="translate(491.375 0)"/>
     <use xlink:href="#DejaVuSans-27" transform="translate(559.984375 0)"/>
    </g>
   </g>
   <g id="text_19">
    <!-- Imizamo Yethu -->
    <g style="fill: #183d35" transform="translate(464.953771 302.198615) scale(0.08 -0.08)">
     <defs>
      <path id="DejaVuSans-2c" d="M 628 4666 
L 1259 4666 
L 1259 0 
L 628 0 
L 628 4666 
z
" transform="scale(0.015625)"/>
      <path id="DejaVuSans-5d" d="M 353 3500 
L 3084 3500 
L 3084 2975 
L 922 459 
L 3084 459 
L 3084 0 
L 275 0 
L 275 525 
L 2438 3041 
L 353 3041 
L 353 3500 
z
" transform="scale(0.015625)"/>
     </defs>
     <use xlink:href="#DejaVuSans-2c"/>
     <use xlink:href="#DejaVuSans-50" transform="translate(29.5 0)"/>
     <use xlink:href="#DejaVuSans-4c" transform="translate(126.90625 0)"/>
     <use xlink:href="#DejaVuSans-5d" transform="translate(154.6875 0)"/>
     <use xlink:href="#DejaVuSans-44" transform="translate(207.171875 0)"/>
     <use xlink:href="#DejaVuSans-50" transform="translate(268.453125 0)"/>
     <use xlink:href="#DejaVuSans-52" transform="translate(365.859375 0)"/>
     <use xlink:href="#DejaVuSans-3" transform="translate(427.046875 0)"/>
     <use xlink:href="#DejaVuSans-3c" transform="translate(458.828125 0)"/>
     <use xlink:href="#DejaVuSans-48" transform="translate(506.625 0)"/>
     <use xlink:href="#DejaVuSans-57" transform="translate(568.15625 0)"/>
     <use xlink:href="#DejaVuSans-4b" transform="translate(607.359375 0)"/>
     <use xlink:href="#DejaVuSans-58" transform="translate(670.734375 0)"/>
    </g>
   </g>
  </g>
 </g>
 <defs>
  <clipPath id="pbc64ddfeff">
   <rect x="49.624766" y="12.96" width="518.197891" height="317.677891"/>
  </clipPath>
 </defs>
</svg>
